<?xml version="1.0" encoding="UTF-8" standalone="no"?>
<!-- Created with Inkscape (http://www.inkscape.org/) -->

<svg
   version="1.1"
   id="svg9"
   xml:space="preserve"
   width="434.32794"
   height="386.32794"
   viewBox="0 0 434.32794 386.32794"
   sodipodi:docname="anli.svg"
   inkscape:version="1.1.1 (c3084ef, 2021-09-22)"
   xmlns:inkscape="http://www.inkscape.org/namespaces/inkscape"
   xmlns:sodipodi="http://sodipodi.sourceforge.net/DTD/sodipodi-0.dtd"
   xmlns="http://www.w3.org/2000/svg"
   xmlns:svg="http://www.w3.org/2000/svg"><defs
     id="defs13"><clipPath
       clipPathUnits="userSpaceOnUse"
       id="clipPath31"><path
         d="M 63.316,279.035 H 315.031 V 53.726 H 63.316 Z"
         id="path29" /></clipPath><clipPath
       clipPathUnits="userSpaceOnUse"
       id="clipPath41"><path
         d="m 63.316,109 h 251.715 v -2 H 63.316 Z"
         id="path39" /></clipPath><clipPath
       clipPathUnits="userSpaceOnUse"
       id="clipPath51"><path
         d="m 63.316,167 h 251.715 v -2 H 63.316 Z"
         id="path49" /></clipPath><clipPath
       clipPathUnits="userSpaceOnUse"
       id="clipPath61"><path
         d="m 63.316,226 h 251.715 v -2 H 63.316 Z"
         id="path59" /></clipPath><clipPath
       clipPathUnits="userSpaceOnUse"
       id="clipPath71"><path
         d="m 93,279.035 h 2 V 53.726 h -2 z"
         id="path69" /></clipPath><clipPath
       clipPathUnits="userSpaceOnUse"
       id="clipPath81"><path
         d="m 131,279.035 h 2 V 53.726 h -2 z"
         id="path79" /></clipPath><clipPath
       clipPathUnits="userSpaceOnUse"
       id="clipPath91"><path
         d="m 169,279.035 h 2 V 53.726 h -2 z"
         id="path89" /></clipPath><clipPath
       clipPathUnits="userSpaceOnUse"
       id="clipPath101"><path
         d="m 207,279.035 h 2 V 53.726 h -2 z"
         id="path99" /></clipPath><clipPath
       clipPathUnits="userSpaceOnUse"
       id="clipPath111"><path
         d="m 245,279.035 h 2 V 53.726 h -2 z"
         id="path109" /></clipPath><clipPath
       clipPathUnits="userSpaceOnUse"
       id="clipPath121"><path
         d="m 284,279.035 h 1 V 53.726 h -1 z"
         id="path119" /></clipPath><clipPath
       clipPathUnits="userSpaceOnUse"
       id="clipPath131"><path
         d="M 63.316,80 H 315.031 V 77 H 63.316 Z"
         id="path129" /></clipPath><clipPath
       clipPathUnits="userSpaceOnUse"
       id="clipPath141"><path
         d="m 63.316,138 h 251.715 v -2 H 63.316 Z"
         id="path139" /></clipPath><clipPath
       clipPathUnits="userSpaceOnUse"
       id="clipPath151"><path
         d="m 63.316,197 h 251.715 v -3 H 63.316 Z"
         id="path149" /></clipPath><clipPath
       clipPathUnits="userSpaceOnUse"
       id="clipPath161"><path
         d="m 63.316,256 h 251.715 v -3 H 63.316 Z"
         id="path159" /></clipPath><clipPath
       clipPathUnits="userSpaceOnUse"
       id="clipPath171"><path
         d="m 73,279.035 h 3 V 53.726 h -3 z"
         id="path169" /></clipPath><clipPath
       clipPathUnits="userSpaceOnUse"
       id="clipPath181"><path
         d="m 112,279.035 h 2 V 53.726 h -2 z"
         id="path179" /></clipPath><clipPath
       clipPathUnits="userSpaceOnUse"
       id="clipPath191"><path
         d="m 150,279.035 h 2 V 53.726 h -2 z"
         id="path189" /></clipPath><clipPath
       clipPathUnits="userSpaceOnUse"
       id="clipPath201"><path
         d="m 188,279.035 h 3 V 53.726 h -3 z"
         id="path199" /></clipPath><clipPath
       clipPathUnits="userSpaceOnUse"
       id="clipPath211"><path
         d="m 226,279.035 h 3 V 53.726 h -3 z"
         id="path209" /></clipPath><clipPath
       clipPathUnits="userSpaceOnUse"
       id="clipPath221"><path
         d="m 264,279.035 h 3 V 53.726 h -3 z"
         id="path219" /></clipPath><clipPath
       clipPathUnits="userSpaceOnUse"
       id="clipPath231"><path
         d="m 302,279.035 h 3 V 53.726 h -3 z"
         id="path229" /></clipPath><clipPath
       clipPathUnits="userSpaceOnUse"
       id="clipPath309"><path
         d="M 63.316,279.035 H 315.031 V 53.726 H 63.316 Z"
         id="path307" /></clipPath></defs><sodipodi:namedview
     id="namedview11"
     pagecolor="#ffffff"
     bordercolor="#999999"
     borderopacity="1"
     inkscape:pageshadow="0"
     inkscape:pageopacity="0"
     inkscape:pagecheckerboard="0"
     showgrid="false"
     inkscape:zoom="2.0026042"
     inkscape:cx="216.96749"
     inkscape:cy="103.61508"
     inkscape:window-width="1312"
     inkscape:window-height="969"
     inkscape:window-x="2275"
     inkscape:window-y="118"
     inkscape:window-maximized="0"
     inkscape:current-layer="g235" /><g
     id="g15"
     inkscape:groupmode="layer"
     inkscape:label="anli"
     transform="matrix(1.3333333,0,0,-1.3333333,1.16398,385.16397)"><g
       id="g17"><path
         d="M 0,0 H 324 V 288 H 0 Z"
         style="fill:#ffffff;fill-opacity:1;fill-rule:nonzero;stroke:none"
         id="path19" /><path
         d="M 0,0 H 324 V 288 H 0 Z"
         style="fill:#ffffff;fill-opacity:1;fill-rule:nonzero;stroke:none"
         id="path21" /><path
         d="M 0,288 H 324 V 0 H 0 Z"
         style="fill:none;stroke:#ffffff;stroke-width:1.74597;stroke-linecap:round;stroke-linejoin:round;stroke-miterlimit:10;stroke-dasharray:none;stroke-opacity:1"
         id="path23" /></g><g
       id="g25"><g
         id="g27"
         clip-path="url(#clipPath31)"><path
           d="M 63.316,279.035 H 315.031 V 53.726 H 63.316 Z"
           style="fill:#ffffff;fill-opacity:1;fill-rule:nonzero;stroke:none"
           id="path33" /></g></g><g
       id="g35"><g
         id="g37"
         clip-path="url(#clipPath41)"><path
           d="M 63.316,107.859 H 315.035"
           style="fill:none;stroke:#ebebeb;stroke-width:0.872982;stroke-linecap:butt;stroke-linejoin:round;stroke-miterlimit:10;stroke-dasharray:none;stroke-opacity:1"
           id="path43" /></g></g><g
       id="g45"><g
         id="g47"
         clip-path="url(#clipPath51)"><path
           d="M 63.316,166.379 H 315.035"
           style="fill:none;stroke:#ebebeb;stroke-width:0.872982;stroke-linecap:butt;stroke-linejoin:round;stroke-miterlimit:10;stroke-dasharray:none;stroke-opacity:1"
           id="path53" /></g></g><g
       id="g55"><g
         id="g57"
         clip-path="url(#clipPath61)"><path
           d="M 63.316,224.902 H 315.035"
           style="fill:none;stroke:#ebebeb;stroke-width:0.872982;stroke-linecap:butt;stroke-linejoin:round;stroke-miterlimit:10;stroke-dasharray:none;stroke-opacity:1"
           id="path63" /></g></g><g
       id="g65"><g
         id="g67"
         clip-path="url(#clipPath71)"><path
           d="M 93.828,53.727 V 279.035"
           style="fill:none;stroke:#ebebeb;stroke-width:0.872982;stroke-linecap:butt;stroke-linejoin:round;stroke-miterlimit:10;stroke-dasharray:none;stroke-opacity:1"
           id="path73" /></g></g><g
       id="g75"><g
         id="g77"
         clip-path="url(#clipPath81)"><path
           d="M 131.969,53.727 V 279.035"
           style="fill:none;stroke:#ebebeb;stroke-width:0.872982;stroke-linecap:butt;stroke-linejoin:round;stroke-miterlimit:10;stroke-dasharray:none;stroke-opacity:1"
           id="path83" /></g></g><g
       id="g85"><g
         id="g87"
         clip-path="url(#clipPath91)"><path
           d="M 170.105,53.727 V 279.035"
           style="fill:none;stroke:#ebebeb;stroke-width:0.872982;stroke-linecap:butt;stroke-linejoin:round;stroke-miterlimit:10;stroke-dasharray:none;stroke-opacity:1"
           id="path93" /></g></g><g
       id="g95"><g
         id="g97"
         clip-path="url(#clipPath101)"><path
           d="M 208.246,53.727 V 279.035"
           style="fill:none;stroke:#ebebeb;stroke-width:0.872982;stroke-linecap:butt;stroke-linejoin:round;stroke-miterlimit:10;stroke-dasharray:none;stroke-opacity:1"
           id="path103" /></g></g><g
       id="g105"><g
         id="g107"
         clip-path="url(#clipPath111)"><path
           d="M 246.383,53.727 V 279.035"
           style="fill:none;stroke:#ebebeb;stroke-width:0.872982;stroke-linecap:butt;stroke-linejoin:round;stroke-miterlimit:10;stroke-dasharray:none;stroke-opacity:1"
           id="path113" /></g></g><g
       id="g115"><g
         id="g117"
         clip-path="url(#clipPath121)"><path
           d="M 284.523,53.727 V 279.035"
           style="fill:none;stroke:#ebebeb;stroke-width:0.872982;stroke-linecap:butt;stroke-linejoin:round;stroke-miterlimit:10;stroke-dasharray:none;stroke-opacity:1"
           id="path123" /></g></g><g
       id="g125"><g
         id="g127"
         clip-path="url(#clipPath131)"><path
           d="M 63.316,78.598 H 315.035"
           style="fill:none;stroke:#ebebeb;stroke-width:1.74597;stroke-linecap:butt;stroke-linejoin:round;stroke-miterlimit:10;stroke-dasharray:none;stroke-opacity:1"
           id="path133" /></g></g><g
       id="g135"><g
         id="g137"
         clip-path="url(#clipPath141)"><path
           d="M 63.316,137.117 H 315.035"
           style="fill:none;stroke:#ebebeb;stroke-width:1.74597;stroke-linecap:butt;stroke-linejoin:round;stroke-miterlimit:10;stroke-dasharray:none;stroke-opacity:1"
           id="path143" /></g></g><g
       id="g145"><g
         id="g147"
         clip-path="url(#clipPath151)"><path
           d="M 63.316,195.641 H 315.035"
           style="fill:none;stroke:#ebebeb;stroke-width:1.74597;stroke-linecap:butt;stroke-linejoin:round;stroke-miterlimit:10;stroke-dasharray:none;stroke-opacity:1"
           id="path153" /></g></g><g
       id="g155"><g
         id="g157"
         clip-path="url(#clipPath161)"><path
           d="M 63.316,254.16 H 315.035"
           style="fill:none;stroke:#ebebeb;stroke-width:1.74597;stroke-linecap:butt;stroke-linejoin:round;stroke-miterlimit:10;stroke-dasharray:none;stroke-opacity:1"
           id="path163" /></g></g><g
       id="g165"><g
         id="g167"
         clip-path="url(#clipPath171)"><path
           d="M 74.762,53.727 V 279.035"
           style="fill:none;stroke:#ebebeb;stroke-width:1.74597;stroke-linecap:butt;stroke-linejoin:round;stroke-miterlimit:10;stroke-dasharray:none;stroke-opacity:1"
           id="path173" /></g></g><g
       id="g175"><g
         id="g177"
         clip-path="url(#clipPath181)"><path
           d="M 112.898,53.727 V 279.035"
           style="fill:none;stroke:#ebebeb;stroke-width:1.74597;stroke-linecap:butt;stroke-linejoin:round;stroke-miterlimit:10;stroke-dasharray:none;stroke-opacity:1"
           id="path183" /></g></g><g
       id="g185"><g
         id="g187"
         clip-path="url(#clipPath191)"><path
           d="M 151.039,53.727 V 279.035"
           style="fill:none;stroke:#ebebeb;stroke-width:1.74597;stroke-linecap:butt;stroke-linejoin:round;stroke-miterlimit:10;stroke-dasharray:none;stroke-opacity:1"
           id="path193" /></g></g><g
       id="g195"><g
         id="g197"
         clip-path="url(#clipPath201)"><path
           d="M 189.176,53.727 V 279.035"
           style="fill:none;stroke:#ebebeb;stroke-width:1.74597;stroke-linecap:butt;stroke-linejoin:round;stroke-miterlimit:10;stroke-dasharray:none;stroke-opacity:1"
           id="path203" /></g></g><g
       id="g205"><g
         id="g207"
         clip-path="url(#clipPath211)"><path
           d="M 227.316,53.727 V 279.035"
           style="fill:none;stroke:#ebebeb;stroke-width:1.74597;stroke-linecap:butt;stroke-linejoin:round;stroke-miterlimit:10;stroke-dasharray:none;stroke-opacity:1"
           id="path213" /></g></g><g
       id="g215"><g
         id="g217"
         clip-path="url(#clipPath221)"><path
           d="M 265.453,53.727 V 279.035"
           style="fill:none;stroke:#ebebeb;stroke-width:1.74597;stroke-linecap:butt;stroke-linejoin:round;stroke-miterlimit:10;stroke-dasharray:none;stroke-opacity:1"
           id="path223" /></g></g><g
       id="g225"><g
         id="g227"
         clip-path="url(#clipPath231)"><path
           d="M 303.594,53.727 V 279.035"
           style="fill:none;stroke:#ebebeb;stroke-width:1.74597;stroke-linecap:butt;stroke-linejoin:round;stroke-miterlimit:10;stroke-dasharray:none;stroke-opacity:1"
           id="path233" /></g></g><g
       id="g235"><path
         d="m 290.504,225.664 c 0,-4.738 -7.109,-4.738 -7.109,0 0,4.742 7.109,4.742 7.109,0"
         style="fill:#000000;fill-opacity:1;fill-rule:nonzero;stroke:#000000;stroke-width:0.708661;stroke-linecap:round;stroke-linejoin:round;stroke-miterlimit:10;stroke-dasharray:none;stroke-opacity:1"
         id="path237" /><path
         d="m 239.957,149.266 c 0,-4.739 -7.113,-4.739 -7.113,0 0,4.742 7.113,4.742 7.113,0"
         style="fill:#000000;fill-opacity:1;fill-rule:nonzero;stroke:#000000;stroke-width:0.708661;stroke-linecap:round;stroke-linejoin:round;stroke-miterlimit:10;stroke-dasharray:none;stroke-opacity:1"
         id="path239" /><path
         d="m 162.039,102.473 c 0,-4.743 -7.113,-4.743 -7.113,0 0,4.738 7.113,4.738 7.113,0"
         style="fill:#000000;fill-opacity:1;fill-rule:nonzero;stroke:#000000;stroke-width:0.708661;stroke-linecap:round;stroke-linejoin:round;stroke-miterlimit:10;stroke-dasharray:none;stroke-opacity:1"
         id="path241" /><path
         d="m 263.172,195.105 c 0,-4.738 -7.113,-4.738 -7.113,0 0,4.743 7.113,4.743 7.113,0"
         style="fill:#000000;fill-opacity:1;fill-rule:nonzero;stroke:#000000;stroke-width:0.708661;stroke-linecap:round;stroke-linejoin:round;stroke-miterlimit:10;stroke-dasharray:none;stroke-opacity:1"
         id="path243" /><path
         d="m 82.133,107.246 c 0,-4.738 -7.11,-4.738 -7.11,0 0,4.742 7.11,4.742 7.11,0"
         style="fill:#000000;fill-opacity:1;fill-rule:nonzero;stroke:#000000;stroke-width:0.708661;stroke-linecap:round;stroke-linejoin:round;stroke-miterlimit:10;stroke-dasharray:none;stroke-opacity:1"
         id="path245" /><path
         d="m 95.492,134.941 c 0,-4.738 -7.109,-4.738 -7.109,0 0,4.743 7.109,4.743 7.109,0"
         style="fill:#000000;fill-opacity:1;fill-rule:nonzero;stroke:#000000;stroke-width:0.708661;stroke-linecap:round;stroke-linejoin:round;stroke-miterlimit:10;stroke-dasharray:none;stroke-opacity:1"
         id="path247" /><path
         d="m 134.68,165.5 c 0,-4.738 -7.11,-4.738 -7.11,0 0,4.742 7.11,4.742 7.11,0"
         style="fill:#000000;fill-opacity:1;fill-rule:nonzero;stroke:#000000;stroke-width:0.708661;stroke-linecap:round;stroke-linejoin:round;stroke-miterlimit:10;stroke-dasharray:none;stroke-opacity:1"
         id="path249" /><path
         d="m 178.594,239.035 c 0,-4.742 -7.114,-4.742 -7.114,0 0,4.738 7.114,4.738 7.114,0"
         style="fill:#000000;fill-opacity:1;fill-rule:nonzero;stroke:#000000;stroke-width:0.708661;stroke-linecap:round;stroke-linejoin:round;stroke-miterlimit:10;stroke-dasharray:none;stroke-opacity:1"
         id="path251" /><path
         d="m 157.602,97.699 c 0,-4.742 -7.11,-4.742 -7.11,0 0,4.739 7.11,4.739 7.11,0"
         style="fill:#000000;fill-opacity:1;fill-rule:nonzero;stroke:#000000;stroke-width:0.708661;stroke-linecap:round;stroke-linejoin:round;stroke-miterlimit:10;stroke-dasharray:none;stroke-opacity:1"
         id="path253" /><path
         d="m 194.66,107.246 c 0,-4.738 -7.113,-4.738 -7.113,0 0,4.742 7.113,4.742 7.113,0"
         style="fill:#000000;fill-opacity:1;fill-rule:nonzero;stroke:#000000;stroke-width:0.708661;stroke-linecap:round;stroke-linejoin:round;stroke-miterlimit:10;stroke-dasharray:none;stroke-opacity:1"
         id="path255" /><path
         d="m 141.32,77.645 c 0,-4.743 -7.113,-4.743 -7.113,0 0,4.738 7.113,4.738 7.113,0"
         style="fill:#000000;fill-opacity:1;fill-rule:nonzero;stroke:#000000;stroke-width:0.708661;stroke-linecap:round;stroke-linejoin:round;stroke-miterlimit:10;stroke-dasharray:none;stroke-opacity:1"
         id="path257" /><path
         d="m 147.984,99.605 c 0,-4.738 -7.113,-4.738 -7.113,0 0,4.743 7.113,4.743 7.113,0"
         style="fill:#000000;fill-opacity:1;fill-rule:nonzero;stroke:#000000;stroke-width:0.708661;stroke-linecap:round;stroke-linejoin:round;stroke-miterlimit:10;stroke-dasharray:none;stroke-opacity:1"
         id="path259" /><path
         d="m 148.086,120.617 c 0,-4.742 -7.109,-4.742 -7.109,0 0,4.738 7.109,4.738 7.109,0"
         style="fill:#000000;fill-opacity:1;fill-rule:nonzero;stroke:#000000;stroke-width:0.708661;stroke-linecap:round;stroke-linejoin:round;stroke-miterlimit:10;stroke-dasharray:none;stroke-opacity:1"
         id="path261" /><path
         d="m 118.602,77.645 c 0,-4.743 -7.11,-4.743 -7.11,0 0,4.738 7.11,4.738 7.11,0"
         style="fill:#000000;fill-opacity:1;fill-rule:nonzero;stroke:#000000;stroke-width:0.708661;stroke-linecap:round;stroke-linejoin:round;stroke-miterlimit:10;stroke-dasharray:none;stroke-opacity:1"
         id="path263" /><path
         d="m 132.477,85.281 c 0,-4.738 -7.11,-4.738 -7.11,0 0,4.742 7.11,4.742 7.11,0"
         style="fill:#000000;fill-opacity:1;fill-rule:nonzero;stroke:#000000;stroke-width:0.708661;stroke-linecap:round;stroke-linejoin:round;stroke-miterlimit:10;stroke-dasharray:none;stroke-opacity:1"
         id="path265" /><path
         d="m 88.371,90.059 c 0,-4.743 -7.109,-4.743 -7.109,0 0,4.738 7.109,4.738 7.109,0"
         style="fill:#000000;fill-opacity:1;fill-rule:nonzero;stroke:#000000;stroke-width:0.708661;stroke-linecap:round;stroke-linejoin:round;stroke-miterlimit:10;stroke-dasharray:none;stroke-opacity:1"
         id="path267" /><path
         d="m 222.383,176.961 c 0,-4.742 -7.11,-4.742 -7.11,0 0,4.742 7.11,4.742 7.11,0"
         style="fill:#000000;fill-opacity:1;fill-rule:nonzero;stroke:#000000;stroke-width:0.708661;stroke-linecap:round;stroke-linejoin:round;stroke-miterlimit:10;stroke-dasharray:none;stroke-opacity:1"
         id="path269" /><path
         d="m 196.547,135.898 c 0,-4.742 -7.109,-4.742 -7.109,0 0,4.739 7.109,4.739 7.109,0"
         style="fill:#000000;fill-opacity:1;fill-rule:nonzero;stroke:#000000;stroke-width:0.708661;stroke-linecap:round;stroke-linejoin:round;stroke-miterlimit:10;stroke-dasharray:none;stroke-opacity:1"
         id="path271" /><path
         d="m 245.551,195.105 c 0,-4.738 -7.11,-4.738 -7.11,0 0,4.743 7.11,4.743 7.11,0"
         style="fill:#000000;fill-opacity:1;fill-rule:nonzero;stroke:#000000;stroke-width:0.708661;stroke-linecap:round;stroke-linejoin:round;stroke-miterlimit:10;stroke-dasharray:none;stroke-opacity:1"
         id="path273" /><path
         d="m 161.836,107.246 c 0,-4.738 -7.109,-4.738 -7.109,0 0,4.742 7.109,4.742 7.109,0"
         style="fill:#000000;fill-opacity:1;fill-rule:nonzero;stroke:#000000;stroke-width:0.708661;stroke-linecap:round;stroke-linejoin:round;stroke-miterlimit:10;stroke-dasharray:none;stroke-opacity:1"
         id="path275" /><path
         d="m 159.66,117.75 c 0,-4.738 -7.109,-4.738 -7.109,0 0,4.742 7.109,4.742 7.109,0"
         style="fill:#000000;fill-opacity:1;fill-rule:nonzero;stroke:#000000;stroke-width:0.708661;stroke-linecap:round;stroke-linejoin:round;stroke-miterlimit:10;stroke-dasharray:none;stroke-opacity:1"
         id="path277" /><path
         d="m 161.906,137.805 c 0,-4.739 -7.113,-4.739 -7.113,0 0,4.742 7.113,4.742 7.113,0"
         style="fill:#000000;fill-opacity:1;fill-rule:nonzero;stroke:#000000;stroke-width:0.708661;stroke-linecap:round;stroke-linejoin:round;stroke-miterlimit:10;stroke-dasharray:none;stroke-opacity:1"
         id="path279" /><path
         d="m 196.602,175.051 c 0,-4.739 -7.11,-4.739 -7.11,0 0,4.742 7.11,4.742 7.11,0"
         style="fill:#000000;fill-opacity:1;fill-rule:nonzero;stroke:#000000;stroke-width:0.708661;stroke-linecap:round;stroke-linejoin:round;stroke-miterlimit:10;stroke-dasharray:none;stroke-opacity:1"
         id="path281" /><path
         d="m 91.766,116.883 2.636,0.969 2.641,0.976 2.637,0.984 2.636,0.997 2.637,1.003 2.641,1.012 2.636,1.028 2.637,1.035 2.637,1.051 2.637,1.062 2.64,1.074 2.637,1.094 2.637,1.113 2.636,1.125 2.641,1.149 2.637,1.172 2.636,1.191 2.637,1.215 2.641,1.242 2.637,1.266 2.636,1.297 2.637,1.328 2.637,1.355 2.64,1.391 2.637,1.426 2.637,1.457 2.636,1.496 2.641,1.531 2.637,1.566 2.637,1.602 2.636,1.637 2.641,1.675 2.637,1.707 2.636,1.743 2.637,1.777 2.637,1.805 2.64,1.836 2.637,1.863 2.637,1.894 2.637,1.914 2.64,1.942 2.637,1.965 2.637,1.984 2.636,2.004 2.637,2.019 2.641,2.04 2.636,2.054 2.637,2.071 2.637,2.082 2.64,2.093 2.637,2.11 2.637,2.117 2.637,2.129 2.64,2.137 2.637,2.144 2.637,2.156 2.636,2.164 2.637,2.168 2.641,2.176 2.636,2.18 5.274,4.383 2.641,2.199 2.636,2.203 2.637,2.207 2.637,2.211 2.64,2.215 2.637,2.218 2.637,2.223 2.636,2.227 2.637,2.23 2.641,2.231 2.636,2.234 2.637,2.238 v -73.472 l -5.273,-1.789 -2.641,-0.899 -2.637,-0.902 -2.636,-0.906 -5.274,-1.821 -2.64,-0.918 -2.637,-0.918 -2.637,-0.925 -2.636,-0.93 -2.641,-0.93 -5.274,-1.883 -2.636,-0.949 -2.641,-0.957 -2.637,-0.961 -2.636,-0.969 -2.637,-0.976 -2.637,-0.985 -2.64,-0.996 -2.637,-1.004 -2.637,-1.011 -2.637,-1.024 -2.64,-1.039 -2.637,-1.047 -2.637,-1.062 -2.636,-1.078 -2.641,-1.09 -2.637,-1.109 -2.636,-1.129 -2.637,-1.149 -2.637,-1.168 -2.64,-1.191 -2.637,-1.215 -2.637,-1.238 -2.637,-1.27 -2.64,-1.293 -2.637,-1.324 -2.637,-1.359 -2.636,-1.387 -2.637,-1.422 -2.641,-1.461 -2.636,-1.492 -2.637,-1.527 -2.637,-1.567 -2.641,-1.601 -2.636,-1.637 -2.637,-1.672 -2.637,-1.707 -2.64,-1.742 -2.637,-1.774 -2.637,-1.804 -2.636,-1.836 -2.637,-1.864 -2.641,-1.89 -2.637,-1.914 -2.636,-1.942 -2.637,-1.961 -2.641,-1.984 -2.636,-2 -2.637,-2.023 -2.637,-2.04 -2.64,-2.05 -2.637,-2.071 -2.637,-2.082 -2.637,-2.093 -2.636,-2.11 -2.641,-2.117 -2.637,-2.125 -2.636,-2.141 -2.637,-2.144 -2.641,-2.152 -2.636,-2.165 z"
         style="fill:#999999;fill-opacity:0.4;fill-rule:nonzero;stroke:none"
         id="path283" /><path
         d="m 78.578,83.27 2.637,1.566 2.637,1.562 2.64,1.567 7.91,4.699 2.641,1.566 2.637,1.563 5.273,3.133 2.641,1.566 2.636,1.567 2.637,1.562 5.274,3.133 2.64,1.566 5.274,3.133 2.636,1.563 2.641,1.566 7.91,4.699 2.641,1.567 2.637,1.562 7.91,4.699 2.64,1.567 2.637,1.562 5.273,3.133 2.641,1.567 5.274,3.132 2.636,1.563 2.641,1.566 7.91,4.699 2.637,1.563 2.64,1.566 7.911,4.7 2.64,1.566 2.637,1.562 7.91,4.7 2.641,1.566 2.636,1.563 5.274,3.132 2.64,1.567 5.274,3.133 2.637,1.562 2.64,1.567 10.547,6.265 2.641,1.563 7.91,4.699 2.641,1.566 2.636,1.563 5.274,3.133 2.64,1.566 5.274,3.133 2.636,1.562 2.637,1.567 2.641,1.566 5.273,3.133"
         style="fill:none;stroke:#3366ff;stroke-width:2.13396;stroke-linecap:butt;stroke-linejoin:round;stroke-miterlimit:10;stroke-dasharray:none;stroke-opacity:1"
         id="path285" /><text
         transform="matrix(1,0,0,-1,215.34375,87.761719)"
         style="font-variant:normal;font-weight:normal;font-size:12.8037px;font-family:'CMU Serif';-inkscape-font-specification:CMUSerif-Roman;writing-mode:lr-tb;fill:#000000;fill-opacity:1;fill-rule:nonzero;stroke:none"
         id="text289"><tspan
           x="0"
           y="0"
           id="tspan287"
           style="font-style:italic">R</tspan></text><text
         transform="matrix(1,0,0,-1,226.07812,93.007812)"
         style="font-variant:normal;font-weight:normal;font-size:8.96262px;font-family:'CMU Serif';-inkscape-font-specification:CMUSerif-Roman;writing-mode:lr-tb;fill:#000000;fill-opacity:1;fill-rule:nonzero;stroke:none"
         id="text293"><tspan
           x="0"
           y="0"
           id="tspan291">2</tspan></text><text
         transform="matrix(1,0,0,-1,233.81641,87.761719)"
         style="font-variant:normal;font-weight:normal;font-size:12.8037px;font-family:'CMU Serif';-inkscape-font-specification:CMUSerif-Roman;writing-mode:lr-tb;fill:#000000;fill-opacity:1;fill-rule:nonzero;stroke:none"
         id="text297"><tspan
           x="0"
           y="0"
           id="tspan295">=</tspan></text><text
         transform="matrix(1,0,0,-1,247.01706,87.761719)"
         style="font-variant:normal;font-weight:normal;font-size:12.8037px;font-family:'CMU Serif';-inkscape-font-specification:CMUSerif-Roman;writing-mode:lr-tb;fill:#000000;fill-opacity:1;fill-rule:nonzero;stroke:none"
         id="text301"><tspan
           x="0 6.4018698 9.9485064 16.350376"
           y="0"
           sodipodi:role="line"
           id="tspan299">0.48</tspan></text></g><g
       id="g303"><g
         id="g305"
         clip-path="url(#clipPath309)"><path
           d="M 63.316,279.035 H 315.031 V 53.726 H 63.316 Z"
           style="fill:none;stroke:#333333;stroke-width:1.74597;stroke-linecap:round;stroke-linejoin:round;stroke-miterlimit:10;stroke-dasharray:none;stroke-opacity:1"
           id="path311" /></g></g><g
       id="g313"><text
         transform="matrix(1,0,0,-1,29.648438,73.679688)"
         style="font-variant:normal;font-weight:normal;font-size:14.4px;font-family:'CMU Serif';-inkscape-font-specification:CMUSerif-Roman;writing-mode:lr-tb;fill:#000000;fill-opacity:1;fill-rule:nonzero;stroke:none"
         id="text323"><tspan
           x="0 7.1999998 11.1888 18.3888"
           y="0"
           sodipodi:role="line"
           id="tspan315">0.50</tspan><tspan
           x="0 7.1999998 11.1888 18.3888"
           y="-58.519527"
           sodipodi:role="line"
           id="tspan317">0.54</tspan><tspan
           x="0 7.1999998 11.1888 18.3888"
           y="-117.04297"
           sodipodi:role="line"
           id="tspan319">0.58</tspan><tspan
           x="0 7.1999998 11.1888 18.3888"
           y="-175.5625"
           sodipodi:role="line"
           id="tspan321">0.62</tspan></text><path
         d="m 58.836,78.598 h 4.48"
         style="fill:none;stroke:#333333;stroke-width:1.74597;stroke-linecap:butt;stroke-linejoin:round;stroke-miterlimit:10;stroke-dasharray:none;stroke-opacity:1"
         id="path325" /><path
         d="m 58.836,137.117 h 4.48"
         style="fill:none;stroke:#333333;stroke-width:1.74597;stroke-linecap:butt;stroke-linejoin:round;stroke-miterlimit:10;stroke-dasharray:none;stroke-opacity:1"
         id="path327" /><path
         d="m 58.836,195.641 h 4.48"
         style="fill:none;stroke:#333333;stroke-width:1.74597;stroke-linecap:butt;stroke-linejoin:round;stroke-miterlimit:10;stroke-dasharray:none;stroke-opacity:1"
         id="path329" /><path
         d="m 58.836,254.16 h 4.48"
         style="fill:none;stroke:#333333;stroke-width:1.74597;stroke-linecap:butt;stroke-linejoin:round;stroke-miterlimit:10;stroke-dasharray:none;stroke-opacity:1"
         id="path331" /><path
         d="m 74.762,49.242 v 4.485"
         style="fill:none;stroke:#333333;stroke-width:1.74597;stroke-linecap:butt;stroke-linejoin:round;stroke-miterlimit:10;stroke-dasharray:none;stroke-opacity:1"
         id="path333" /><path
         d="m 112.898,49.242 v 4.485"
         style="fill:none;stroke:#333333;stroke-width:1.74597;stroke-linecap:butt;stroke-linejoin:round;stroke-miterlimit:10;stroke-dasharray:none;stroke-opacity:1"
         id="path335" /><path
         d="m 151.039,49.242 v 4.485"
         style="fill:none;stroke:#333333;stroke-width:1.74597;stroke-linecap:butt;stroke-linejoin:round;stroke-miterlimit:10;stroke-dasharray:none;stroke-opacity:1"
         id="path337" /><path
         d="m 189.176,49.242 v 4.485"
         style="fill:none;stroke:#333333;stroke-width:1.74597;stroke-linecap:butt;stroke-linejoin:round;stroke-miterlimit:10;stroke-dasharray:none;stroke-opacity:1"
         id="path339" /><path
         d="m 227.316,49.242 v 4.485"
         style="fill:none;stroke:#333333;stroke-width:1.74597;stroke-linecap:butt;stroke-linejoin:round;stroke-miterlimit:10;stroke-dasharray:none;stroke-opacity:1"
         id="path341" /><path
         d="m 265.453,49.242 v 4.485"
         style="fill:none;stroke:#333333;stroke-width:1.74597;stroke-linecap:butt;stroke-linejoin:round;stroke-miterlimit:10;stroke-dasharray:none;stroke-opacity:1"
         id="path343" /><path
         d="m 303.594,49.242 v 4.485"
         style="fill:none;stroke:#333333;stroke-width:1.74597;stroke-linecap:butt;stroke-linejoin:round;stroke-miterlimit:10;stroke-dasharray:none;stroke-opacity:1"
         id="path345" /><text
         transform="matrix(1,0,0,-1,65.039062,33.042969)"
         style="font-variant:normal;font-weight:normal;font-size:14.4px;font-family:'CMU Serif';-inkscape-font-specification:CMUSerif-Roman;writing-mode:lr-tb;fill:#000000;fill-opacity:1;fill-rule:nonzero;stroke:none"
         id="text349"><tspan
           x="0 7.1999998"
           y="0"
           sodipodi:role="line"
           id="tspan347">10</tspan></text><text
         transform="matrix(1,0,0,-1,79.441406,38.941406)"
         style="font-variant:normal;font-weight:normal;font-size:10.08px;font-family:'CMU Serif';-inkscape-font-specification:CMUSerif-Roman;writing-mode:lr-tb;fill:#000000;fill-opacity:1;fill-rule:nonzero;stroke:none"
         id="text353"><tspan
           x="0"
           y="0"
           id="tspan351">1</tspan></text><text
         transform="matrix(1,0,0,-1,99.257812,33.042969)"
         style="font-variant:normal;font-weight:normal;font-size:14.4px;font-family:'CMU Serif';-inkscape-font-specification:CMUSerif-Roman;writing-mode:lr-tb;fill:#000000;fill-opacity:1;fill-rule:nonzero;stroke:none"
         id="text357"><tspan
           x="0 7.1999998"
           y="0"
           sodipodi:role="line"
           id="tspan355">10</tspan></text><text
         transform="matrix(1,0,0,-1,113.66016,38.941406)"
         style="font-variant:normal;font-weight:normal;font-size:10.08px;font-family:'CMU Serif';-inkscape-font-specification:CMUSerif-Roman;writing-mode:lr-tb;fill:#000000;fill-opacity:1;fill-rule:nonzero;stroke:none"
         id="text361"><tspan
           x="0 5.04 7.83216"
           y="0"
           sodipodi:role="line"
           id="tspan359">1.5</tspan></text><text
         transform="matrix(1,0,0,-1,141.31641,33.042969)"
         style="font-variant:normal;font-weight:normal;font-size:14.4px;font-family:'CMU Serif';-inkscape-font-specification:CMUSerif-Roman;writing-mode:lr-tb;fill:#000000;fill-opacity:1;fill-rule:nonzero;stroke:none"
         id="text365"><tspan
           x="0 7.1999998"
           y="0"
           sodipodi:role="line"
           id="tspan363">10</tspan></text><text
         transform="matrix(1,0,0,-1,155.71875,38.941406)"
         style="font-variant:normal;font-weight:normal;font-size:10.08px;font-family:'CMU Serif';-inkscape-font-specification:CMUSerif-Roman;writing-mode:lr-tb;fill:#000000;fill-opacity:1;fill-rule:nonzero;stroke:none"
         id="text369"><tspan
           x="0"
           y="0"
           id="tspan367">2</tspan></text><text
         transform="matrix(1,0,0,-1,175.53516,33.042969)"
         style="font-variant:normal;font-weight:normal;font-size:14.4px;font-family:'CMU Serif';-inkscape-font-specification:CMUSerif-Roman;writing-mode:lr-tb;fill:#000000;fill-opacity:1;fill-rule:nonzero;stroke:none"
         id="text373"><tspan
           x="0 7.1999998"
           y="0"
           sodipodi:role="line"
           id="tspan371">10</tspan></text><text
         transform="matrix(1,0,0,-1,189.9375,38.941406)"
         style="font-variant:normal;font-weight:normal;font-size:10.08px;font-family:'CMU Serif';-inkscape-font-specification:CMUSerif-Roman;writing-mode:lr-tb;fill:#000000;fill-opacity:1;fill-rule:nonzero;stroke:none"
         id="text377"><tspan
           x="0 5.04 7.83216"
           y="0"
           sodipodi:role="line"
           id="tspan375">2.5</tspan></text><text
         transform="matrix(1,0,0,-1,217.59375,33.042969)"
         style="font-variant:normal;font-weight:normal;font-size:14.4px;font-family:'CMU Serif';-inkscape-font-specification:CMUSerif-Roman;writing-mode:lr-tb;fill:#000000;fill-opacity:1;fill-rule:nonzero;stroke:none"
         id="text381"><tspan
           x="0 7.1999998"
           y="0"
           sodipodi:role="line"
           id="tspan379">10</tspan></text><text
         transform="matrix(1,0,0,-1,231.99609,38.941406)"
         style="font-variant:normal;font-weight:normal;font-size:10.08px;font-family:'CMU Serif';-inkscape-font-specification:CMUSerif-Roman;writing-mode:lr-tb;fill:#000000;fill-opacity:1;fill-rule:nonzero;stroke:none"
         id="text385"><tspan
           x="0"
           y="0"
           id="tspan383">3</tspan></text><text
         transform="matrix(1,0,0,-1,251.8125,33.042969)"
         style="font-variant:normal;font-weight:normal;font-size:14.4px;font-family:'CMU Serif';-inkscape-font-specification:CMUSerif-Roman;writing-mode:lr-tb;fill:#000000;fill-opacity:1;fill-rule:nonzero;stroke:none"
         id="text389"><tspan
           x="0 7.1999998"
           y="0"
           sodipodi:role="line"
           id="tspan387">10</tspan></text><text
         transform="matrix(1,0,0,-1,266.21484,38.941406)"
         style="font-variant:normal;font-weight:normal;font-size:10.08px;font-family:'CMU Serif';-inkscape-font-specification:CMUSerif-Roman;writing-mode:lr-tb;fill:#000000;fill-opacity:1;fill-rule:nonzero;stroke:none"
         id="text393"><tspan
           x="0 5.04 7.83216"
           y="0"
           sodipodi:role="line"
           id="tspan391">3.5</tspan></text><text
         transform="matrix(1,0,0,-1,293.87109,32.929688)"
         style="font-variant:normal;font-weight:normal;font-size:14.4px;font-family:'CMU Serif';-inkscape-font-specification:CMUSerif-Roman;writing-mode:lr-tb;fill:#000000;fill-opacity:1;fill-rule:nonzero;stroke:none"
         id="text397"><tspan
           x="0 7.1999998"
           y="0"
           sodipodi:role="line"
           id="tspan395">10</tspan></text><text
         transform="matrix(1,0,0,-1,308.27344,38.828125)"
         style="font-variant:normal;font-weight:normal;font-size:10.08px;font-family:'CMU Serif';-inkscape-font-specification:CMUSerif-Roman;writing-mode:lr-tb;fill:#000000;fill-opacity:1;fill-rule:nonzero;stroke:none"
         id="text401"><tspan
           x="0"
           y="0"
           id="tspan399">4</tspan></text><text
         transform="matrix(1,0,0,-1,102.13672,12.675781)"
         style="font-variant:normal;font-weight:normal;font-size:18px;font-family:'CMU Sans Serif';-inkscape-font-specification:CMUSansSerif;writing-mode:lr-tb;fill:#000000;fill-opacity:1;fill-rule:nonzero;stroke:none"
         id="text405"><tspan
           x="0 11.484 20.106001 26.243999 34.866001 49.139999 57.113998 63.594002 71.568001 77.706001 84.582001 90.557999 97.542 101.826 111.114 117.09 131.364 135.64799 139.93201 144.216 148.5 157.5 166.78799"
           y="0"
           sodipodi:role="line"
           id="tspan403">Parameters (in million)</tspan></text><text
         transform="matrix(0,1,1,0,21.457031,132.19922)"
         style="font-variant:normal;font-weight:normal;font-size:18px;font-family:'CMU Sans Serif';-inkscape-font-specification:CMUSansSerif;writing-mode:lr-tb;fill:#000000;fill-opacity:1;fill-rule:nonzero;stroke:none"
         id="text409"><tspan
           x="0 11.988 19.962 27.936001 37.223999 43.362 51.984001 59.958"
           y="0"
           sodipodi:role="line"
           id="tspan407">Accuracy</tspan></text></g></g></svg>
